<?xml version="1.0" standalone="no"?>
<!DOCTYPE svg PUBLIC "-//W3C//DTD SVG 20010904//EN"
 "http://www.w3.org/TR/2001/REC-SVG-20010904/DTD/svg10.dtd">
<svg version="1.0" xmlns="http://www.w3.org/2000/svg"
 width="300.000000pt" height="263.000000pt" viewBox="0 0 300.000000 263.000000"
 preserveAspectRatio="xMidYMid meet">
<metadata>
Created by potrace 1.10, written by Peter Selinger 2001-2011
</metadata>
<g transform="translate(0.000000,263.000000) scale(0.100000,-0.100000)"
fill="#000000" stroke="none">
<path d="M395 2407 c-151 -73 -197 -153 -128 -222 34 -33 96 -33 191 -1 l70
23 43 -34 c48 -37 79 -70 79 -84 0 -5 -24 -6 -53 -3 -49 6 -60 3 -145 -40
-113 -57 -245 -103 -250 -87 -5 15 -31 41 -41 41 -4 0 -16 -6 -26 -14 -16 -12
-18 -19 -10 -43 14 -37 64 -50 145 -37 33 6 60 8 60 4 0 -3 -29 -16 -64 -28
-81 -29 -90 -40 -83 -98 5 -49 46 -104 78 -104 10 0 75 25 146 56 93 41 139
56 168 55 74 -3 217 73 237 126 9 24 24 37 59 53 26 11 60 20 76 20 15 0 72
-23 126 -50 55 -28 110 -50 123 -50 17 0 24 -6 24 -20 0 -12 -7 -20 -16 -20
-38 0 -99 -26 -130 -56 -34 -31 -34 -32 -34 -122 0 -85 2 -92 25 -110 36 -28
32 -59 -7 -75 -51 -22 -94 -63 -120 -115 -21 -43 -23 -60 -23 -197 0 -168 14
-254 70 -422 64 -191 151 -339 264 -446 84 -80 155 -112 251 -112 65 0 85 5
141 33 247 121 462 594 446 982 -6 160 -36 221 -131 268 -53 27 -60 53 -21 84
23 18 25 26 25 107 0 64 -4 93 -16 110 -19 26 -107 71 -141 71 -16 0 -23 6
-23 20 0 14 7 20 24 20 13 0 68 22 123 50 54 27 111 50 126 50 16 0 50 -9 77
-21 38 -16 50 -27 55 -49 11 -48 165 -132 240 -129 29 1 75 -14 168 -55 71
-31 136 -56 146 -56 32 0 73 55 78 104 7 58 -2 69 -83 98 -73 26 -85 41 -21
26 87 -20 167 3 167 48 0 14 -27 44 -40 44 -11 0 -37 -26 -42 -41 -5 -16 -137
30 -250 87 -85 43 -96 46 -145 40 -29 -3 -53 -2 -53 3 0 14 31 47 78 84 l43
33 67 -23 c94 -32 162 -31 196 3 19 20 26 37 26 65 0 54 -43 99 -142 149 -119
59 -153 53 -194 -33 -28 -60 -30 -84 -10 -113 14 -19 12 -23 -35 -58 -29 -21
-57 -53 -65 -72 -8 -19 -20 -34 -28 -34 -8 0 -49 17 -92 37 -95 45 -180 51
-255 17 -48 -23 -119 -79 -119 -96 0 -6 20 8 45 31 24 22 48 41 51 41 9 0 -78
-77 -91 -80 -5 -1 -19 -9 -30 -16 -15 -11 -77 -14 -295 -14 -245 0 -278 2
-300 17 -14 10 -25 15 -26 13 0 -3 -22 14 -49 38 -26 23 -45 42 -41 42 3 0 27
-19 51 -41 25 -23 45 -37 45 -31 0 17 -71 73 -119 96 -75 34 -160 28 -255 -17
-43 -20 -84 -37 -92 -37 -8 0 -20 15 -28 34 -8 19 -36 51 -65 72 -47 35 -49
39 -35 58 20 29 18 53 -10 113 -39 84 -74 91 -181 40z m126 2 c21 -11 59 -87
59 -118 0 -10 -9 -26 -19 -35 -19 -18 -18 -19 40 -68 55 -46 80 -81 78 -111 0
-7 -8 4 -17 25 -9 20 -43 57 -74 82 -50 41 -60 45 -83 36 -45 -17 -42 -10 4
11 68 30 43 32 -29 2 -36 -15 -92 -29 -125 -32 l-60 -6 50 -6 50 -6 -47 -1
c-59 -2 -88 21 -88 72 0 43 45 85 144 132 77 37 88 39 117 23z m2075 -23 c99
-47 144 -89 144 -132 0 -51 -29 -74 -87 -72 l-48 1 50 6 50 6 -60 6 c-33 3
-89 17 -125 32 -72 30 -97 28 -29 -2 46 -21 49 -28 4 -11 -23 9 -33 5 -83 -36
-31 -25 -65 -62 -74 -82 -9 -21 -17 -32 -17 -25 -2 30 23 65 78 111 58 49 59
50 40 68 -24 21 -24 47 0 100 19 42 43 63 71 64 9 0 47 -15 86 -34z m-1540
-280 c28 -13 55 -29 58 -35 4 -5 -19 2 -51 16 -78 36 -156 36 -240 1 -35 -14
-63 -22 -63 -17 0 5 1 9 3 9 1 0 29 11 62 25 80 33 162 33 231 1z m1132 -5
c74 -33 65 -45 -10 -13 -85 35 -163 35 -241 -1 -32 -14 -55 -21 -51 -16 3 6
30 22 58 35 66 32 165 30 244 -5z m-1099 -52 c46 -22 82 -42 79 -45 -3 -2 -40
13 -82 36 -42 22 -87 40 -99 40 -13 -1 -2 -8 28 -20 73 -27 168 -79 178 -95
13 -24 -8 -18 -97 29 -112 59 -145 65 -223 38 -70 -25 -83 -27 -83 -11 0 11
55 37 105 49 23 6 25 8 8 9 -12 1 -42 -8 -68 -19 -60 -26 -71 -25 -22 1 48 25
111 38 157 32 19 -3 73 -22 119 -44z m1084 18 c26 -11 46 -21 44 -24 -2 -2
-25 6 -51 17 -26 11 -57 20 -69 19 -17 -1 -15 -3 8 -9 50 -12 105 -38 105 -49
0 -16 -13 -14 -83 11 -78 27 -111 21 -223 -38 -46 -24 -89 -44 -94 -44 -43 0
99 88 185 116 26 8 32 13 18 13 -12 1 -57 -17 -99 -39 -42 -23 -79 -39 -81
-36 -8 7 132 75 175 85 48 11 105 4 165 -22z m-1608 -17 c-72 -34 -209 -88
-250 -99 -76 -21 -80 -10 -5 15 41 13 111 42 155 63 44 22 94 39 110 40 30 0
30 0 -10 -19z m189 -10 c37 -45 50 -98 30 -128 -9 -13 -18 -21 -22 -18 -3 4 0
12 6 18 14 14 16 52 3 43 -12 -7 -53 83 -44 98 4 6 -2 8 -15 5 -12 -4 -22 -2
-22 3 0 20 40 7 64 -21z m1556 21 c0 -5 -10 -7 -22 -3 -13 3 -19 1 -15 -5 9
-15 -32 -105 -44 -98 -5 4 -9 -5 -9 -19 0 -13 6 -26 13 -29 6 -2 9 -8 5 -11
-3 -4 -14 4 -23 18 -16 25 -16 29 -1 70 9 23 25 52 37 64 20 22 59 30 59 13z
m226 -33 c49 -23 121 -52 159 -65 61 -21 64 -23 26 -18 -24 3 -78 19 -120 36
-42 17 -101 40 -131 51 -66 25 -83 38 -48 38 14 0 65 -19 114 -42z m-1858 16
c12 -8 27 -24 33 -36 10 -18 6 -17 -25 7 -40 31 -46 26 -16 -12 11 -15 18 -28
15 -31 -2 -3 -14 7 -26 21 -11 15 -25 27 -30 27 -6 0 -1 -12 10 -27 12 -14 19
-28 16 -31 -2 -3 -14 7 -26 22 -28 35 -35 27 -13 -16 l17 -33 -40 40 -40 40
46 22 c55 27 51 27 79 7z m1737 -13 l30 -16 -38 -40 c-34 -35 -44 -26 -14 13
5 7 7 15 5 18 -3 3 -15 -7 -27 -22 -12 -15 -24 -25 -26 -22 -3 3 4 17 16 31
11 15 16 27 10 27 -5 0 -19 -12 -30 -27 -12 -14 -24 -24 -26 -21 -3 3 4 16 15
31 30 38 24 43 -16 12 -31 -24 -35 -25 -25 -7 28 52 62 58 126 23z m-1325 -56
c49 -25 96 -45 105 -45 8 0 15 -4 15 -10 0 -19 -26 -10 -124 40 -111 57 -153
62 -225 30 -50 -23 -51 -23 -51 -11 0 5 24 19 53 30 71 28 117 21 227 -34z
m1037 35 c59 -21 70 -27 61 -35 -3 -3 -25 4 -49 15 -71 32 -113 27 -225 -30
-101 -50 -124 -58 -124 -40 0 6 7 10 15 10 9 0 52 19 98 41 129 66 142 68 224
39z m-480 -27 c-81 -2 -213 -2 -295 0 -81 1 -14 3 148 3 162 0 229 -2 147 -3z
m-1063 -34 l26 -31 46 22 c51 23 74 21 74 -9 0 -27 -93 -56 -121 -38 -11 7
-19 17 -19 24 0 6 -13 20 -30 30 -32 19 -39 33 -16 33 8 0 26 -14 40 -31z
m1859 2 c-18 -15 -33 -32 -33 -37 0 -5 -8 -14 -19 -21 -15 -9 -29 -9 -65 2
-60 18 -66 23 -60 40 9 24 32 25 80 5 l45 -20 26 30 c13 17 32 30 41 30 12 -1
8 -9 -15 -29z m-669 4 c-5 -13 -45 -15 -274 -15 -229 0 -269 2 -274 15 -5 13
30 15 274 15 244 0 279 -2 274 -15z m-1229 -26 c37 -44 25 -47 -21 -5 -27 25
-34 36 -22 36 9 0 28 -14 43 -31z m1931 -5 c-21 -19 -40 -33 -43 -31 -8 9 49
67 65 67 12 0 5 -11 -22 -36z m-1955 -36 c6 -12 6 -18 0 -18 -5 0 -13 9 -16
21 -4 11 -9 18 -13 15 -8 -9 -42 25 -36 36 7 10 50 -26 65 -54z m1994 15 c-20
-19 -39 -32 -42 -30 -8 9 59 77 69 71 6 -4 -6 -22 -27 -41z m-2073 15 c23 -19
52 -68 40 -68 -6 0 -14 9 -17 21 -4 11 -9 18 -13 15 -3 -3 -14 1 -24 11 -31
28 -19 46 14 21z m2148 4 c0 -13 -36 -43 -42 -36 -4 3 -9 -4 -13 -15 -3 -12
-11 -21 -17 -21 -12 0 17 49 40 68 18 14 32 16 32 4z m-830 -10 c0 -4 -117 -7
-260 -7 -143 0 -260 3 -260 7 0 5 117 8 260 8 143 0 260 -3 260 -8z m-1341
-31 c12 -16 21 -35 20 -43 0 -7 -5 -4 -10 7 -6 12 -20 25 -31 30 -26 12 -36
35 -15 35 9 0 25 -13 36 -29z m2209 17 c-3 -7 -14 -17 -26 -23 -11 -5 -25 -18
-31 -30 -5 -11 -10 -14 -10 -7 -1 21 38 72 56 72 8 0 13 -6 11 -12z m-2248
-39 c12 -16 20 -33 16 -36 -3 -3 -8 2 -12 11 -3 9 -10 16 -16 16 -10 0 -38 25
-38 34 0 17 32 2 50 -25z m930 20 c0 -5 -3 -9 -7 -9 -5 0 -18 -3 -30 -6 -16
-5 -23 -2 -23 8 0 10 11 15 30 16 17 0 30 -4 30 -9z m40 -44 c0 -30 3 -55 8
-55 4 0 5 25 4 55 -4 50 -2 55 17 55 19 0 21 -6 23 -57 l1 -58 7 60 7 60 -1
-60 -1 -60 -34 -3 c-20 -2 -37 2 -42 10 -12 18 -11 108 1 108 6 0 10 -25 10
-55z m220 45 c0 -6 -30 -10 -70 -10 -40 0 -70 4 -70 10 0 6 30 10 70 10 40 0
70 -4 70 -10z m28 -47 c2 50 4 57 23 57 19 0 20 -4 14 -55 -5 -38 -4 -55 4
-55 7 0 11 21 11 55 0 30 5 55 10 55 12 0 13 -90 1 -108 -5 -8 -22 -12 -42
-10 l-34 3 -1 60 -1 60 7 -60 7 -60 1 58z m152 40 c0 -15 -5 -15 -37 -7 -33 9
-28 23 7 22 18 -1 30 -6 30 -15z m920 11 c0 -9 -28 -34 -38 -34 -5 0 -14 -10
-20 -22 -6 -13 -11 -17 -11 -10 -1 21 38 72 55 72 8 0 14 -3 14 -6z m-1935
-14 c-5 -8 -90 -50 -100 -50 -2 0 -1 9 2 20 3 11 9 17 14 15 4 -3 23 1 41 9
40 17 51 19 43 6z m1569 -5 c20 -9 41 -13 45 -10 5 2 11 -4 14 -15 3 -11 4
-20 2 -20 -10 0 -95 42 -100 50 -8 13 -4 13 39 -5z m-1965 -21 c12 -15 21 -34
20 -43 0 -11 -4 -9 -11 7 -6 12 -15 22 -20 22 -5 0 -18 9 -30 20 l-22 20 21 0
c12 0 31 -12 42 -26z m271 11 c-14 -14 -285 -135 -302 -135 -4 0 -8 5 -8 10 0
6 5 10 11 10 14 0 270 110 284 122 16 14 30 9 15 -7z m1796 6 c12 -11 269
-121 283 -121 6 0 11 -4 11 -10 0 -5 -3 -10 -8 -10 -17 0 -286 120 -300 134
-17 16 -4 23 14 7z m294 -11 c-11 -11 -23 -20 -26 -20 -4 0 -13 -8 -20 -17 -7
-10 -14 -13 -14 -7 0 20 41 64 61 64 19 0 18 -1 -1 -20z m-2406 -21 c38 -44
32 -56 -9 -18 -19 19 -35 37 -35 41 0 17 19 7 44 -23z m1268 -12 c-4 -43 18
-67 62 -67 42 0 56 16 56 61 l0 38 38 -6 c58 -8 144 -33 175 -51 32 -19 47
-63 47 -137 0 -70 -19 -95 -74 -95 -55 0 -104 17 -116 40 -14 26 -12 88 3 93
6 2 -18 9 -55 16 -36 6 -82 18 -102 26 -58 24 -65 17 -9 -9 86 -40 105 -112
45 -169 -35 -34 -72 -47 -132 -47 -60 0 -97 13 -132 47 -60 57 -41 129 45 169
56 26 49 33 -9 9 -20 -8 -66 -20 -102 -26 -37 -7 -61 -14 -54 -16 14 -5 16
-67 2 -93 -12 -23 -61 -40 -116 -40 -58 0 -74 24 -74 108 0 64 11 97 39 119
19 15 130 49 184 57 l37 5 0 -38 c0 -45 14 -61 56 -61 45 0 67 25 61 66 -3 18
-4 34 -2 36 2 1 32 2 66 2 l64 -2 -3 -35z m1188 35 c0 -4 -16 -22 -35 -41 -41
-38 -47 -26 -9 18 25 30 44 40 44 23z m-2489 -108 c12 -14 11 -16 -6 -13 -23
5 -41 49 -30 75 7 16 9 14 15 -13 4 -18 14 -40 21 -49z m2519 45 c0 -29 -18
-59 -36 -59 -13 0 -13 2 0 22 9 12 16 33 16 46 0 13 4 20 10 17 6 -3 10 -15
10 -26z m-1418 -255 c80 -73 204 -70 280 6 31 30 38 45 38 76 0 29 3 35 10 24
20 -31 11 -76 -25 -123 -34 -45 -35 -48 -35 -136 0 -49 -4 -101 -10 -115 -21
-57 -125 -85 -190 -51 -51 26 -60 50 -60 158 0 97 0 99 -35 144 -34 45 -43 82
-28 120 6 13 9 6 14 -26 4 -33 14 -52 41 -77z m-77 52 c0 -33 8 -54 32 -88 29
-41 31 -49 35 -151 3 -105 3 -107 35 -139 29 -29 40 -33 100 -36 59 -3 73 0
103 20 50 34 60 60 60 166 0 89 2 96 32 140 24 35 33 58 33 89 0 38 1 40 12
20 19 -35 15 -79 -12 -122 -23 -37 -24 -50 -25 -172 0 -128 -1 -132 -27 -164
-37 -43 -80 -59 -160 -59 -79 0 -138 23 -171 65 -20 25 -22 39 -22 159 0 125
-1 134 -25 166 -27 37 -32 83 -13 125 6 14 12 25 12 25 1 0 1 -20 1 -44z m-65
-51 c0 -10 -10 -15 -30 -15 -47 0 -35 27 13 29 9 1 17 -6 17 -14z m604 9 c26
-10 18 -24 -14 -24 -20 0 -30 5 -30 15 0 16 17 19 44 9z m-564 -66 c7 -18 15
-35 17 -38 2 -3 -10 -11 -27 -17 -24 -9 -30 -9 -30 3 0 18 -32 34 -70 34 -66
0 -140 -52 -191 -135 -21 -33 -25 -22 -8 22 25 66 104 122 207 147 82 20 86
20 102 -16z m578 17 c108 -26 186 -80 212 -149 13 -35 6 -46 -10 -16 -20 38
-87 100 -124 115 -60 25 -136 15 -136 -19 0 -12 -6 -12 -30 -3 -17 6 -29 14
-27 17 2 3 10 20 17 38 16 37 15 37 98 17z m-636 -69 c14 -20 8 -45 -14 -61
-21 -14 -23 -14 -29 2 -9 24 -1 31 12 13 9 -13 10 -13 6 1 -3 9 0 22 6 29 7 7
-3 5 -22 -5 -19 -9 -51 -18 -71 -19 -29 -1 -36 -5 -37 -21 -1 -11 1 -14 4 -7
3 6 13 12 23 12 10 0 21 -6 23 -12 3 -8 6 -6 6 5 1 22 41 23 41 1 0 -14 -2
-15 -17 -3 -15 12 -16 12 -10 -3 5 -13 1 -18 -13 -18 -11 0 -20 6 -21 13 0 10
-2 10 -6 0 -7 -19 -31 -16 -43 6 -15 29 -13 39 15 57 49 32 129 37 147 10z
m721 2 c36 -14 51 -42 37 -68 -12 -22 -40 -27 -41 -7 0 10 -2 10 -6 0 -2 -7
-14 -13 -25 -13 -15 0 -18 5 -14 16 5 14 4 15 -9 4 -12 -10 -15 -10 -15 4 0
22 40 21 41 -1 0 -11 3 -13 6 -5 2 6 13 12 23 12 10 0 20 -6 23 -12 3 -7 5 -4
4 7 -1 16 -8 20 -37 21 -20 1 -52 10 -71 19 -19 10 -29 12 -22 5 6 -7 9 -20 6
-29 -4 -14 -3 -14 6 -1 13 19 20 10 12 -13 -7 -18 -8 -18 -30 1 -19 14 -23 25
-17 45 9 37 57 42 129 15z m-145 -135 c-10 -36 -45 -113 -51 -113 -5 0 4 173
9 190 4 12 11 9 29 -12 21 -24 22 -32 13 -65z m-510 -1 c3 -74 -7 -91 -29 -50
-24 45 -29 91 -12 111 27 30 38 14 41 -61z m-92 20 c1 -15 21 -72 44 -127 59
-137 62 -192 21 -346 -30 -113 -38 -193 -22 -234 8 -20 8 -20 14 0 3 11 8 46
12 77 3 32 17 92 31 135 29 93 40 201 26 263 -6 24 -9 46 -7 49 2 2 20 -10 40
-28 20 -17 39 -31 43 -31 4 0 13 -4 21 -9 11 -7 3 -32 -43 -129 -71 -152 -74
-199 -22 -325 19 -46 37 -105 41 -132 15 -104 41 -93 33 13 -3 35 -17 86 -38
132 -50 113 -47 149 26 304 l59 126 45 0 45 0 58 -123 c71 -152 75 -199 26
-305 -19 -42 -33 -90 -36 -129 -10 -110 17 -125 31 -17 3 28 22 88 42 134 32
73 36 91 32 149 -3 55 -12 84 -50 163 -64 132 -67 143 -31 156 15 5 41 22 57
36 15 15 30 25 33 22 2 -2 0 -21 -6 -43 -19 -69 -13 -154 20 -264 17 -57 33
-134 36 -171 3 -38 9 -68 14 -68 12 0 22 86 15 133 -4 23 -18 82 -32 131 -37
127 -32 199 25 331 24 55 44 112 45 127 1 31 1 30 34 22 18 -5 22 -13 22 -48
0 -29 12 -62 42 -116 51 -93 53 -130 9 -263 -32 -101 -43 -180 -26 -185 6 -2
14 11 19 30 5 18 24 81 42 139 46 144 45 184 -8 294 -45 94 -44 103 4 133 27
16 29 16 55 -11 28 -27 28 -29 28 -155 -1 -164 -46 -365 -111 -494 -39 -78
-169 -242 -226 -286 -147 -113 -277 -112 -424 6 -56 44 -178 200 -217 278 -70
140 -111 322 -112 496 0 124 1 128 26 154 26 25 27 25 58 9 18 -9 35 -23 38
-31 3 -8 -13 -53 -36 -99 -53 -108 -54 -155 -7 -297 18 -57 37 -118 42 -136 5
-19 14 -32 19 -30 17 5 5 88 -27 188 -43 131 -41 167 10 261 30 54 42 87 42
117 0 39 6 46 45 51 6 0 11 -11 11 -27z m68 -945 c32 -31 83 -69 114 -84 49
-24 69 -28 142 -28 72 0 93 4 140 27 71 35 160 121 219 213 78 123 71 113 64
90 -16 -47 -93 -163 -151 -226 -47 -51 -82 -78 -137 -105 -68 -34 -79 -36
-147 -32 -51 2 -88 11 -123 28 -70 35 -182 149 -243 250 -71 115 -66 126 7 14
32 -50 84 -116 115 -147z"/>
<path d="M423 2376 c-116 -54 -160 -100 -140 -143 5 -13 17 -23 24 -23 12 0
11 3 -1 16 -22 22 -20 41 8 68 30 27 115 74 157 86 27 8 32 6 50 -23 12 -19
18 -44 16 -60 -3 -25 -2 -26 11 -13 13 13 12 20 -9 63 -29 58 -45 62 -116 29z"/>
<path d="M2476 2378 c-33 -52 -40 -78 -25 -93 12 -12 14 -9 14 25 1 53 27 81
65 70 41 -12 126 -59 156 -86 28 -27 30 -46 8 -68 -8 -9 -12 -16 -7 -16 17 0
33 24 33 47 0 32 -39 66 -123 108 -82 41 -101 43 -121 13z"/>
<path d="M1217 1773 c14 -35 -57 -45 -81 -11 -14 20 -16 20 -22 3 -14 -36 60
-60 107 -35 22 12 25 45 5 53 -10 4 -13 1 -9 -10z"/>
<path d="M1773 1783 c-16 -6 -17 -35 -1 -51 16 -16 80 -15 103 2 11 8 16 19
12 30 -6 15 -9 14 -27 -4 -31 -31 -90 -21 -77 14 4 9 5 16 4 15 -1 0 -8 -3
-14 -6z"/>
<path d="M1424 1716 c-38 -17 -64 -52 -64 -86 0 -32 44 -76 85 -85 21 -5 26
-4 16 3 -8 6 -10 15 -6 23 6 11 5 12 -6 2 -20 -19 -33 -16 -18 5 11 14 11 15
-1 5 -19 -18 -50 11 -50 48 0 52 78 89 156 74 69 -13 107 -81 66 -118 -15 -13
-21 -14 -32 -4 -12 10 -12 9 -1 -5 15 -21 2 -24 -18 -5 -11 10 -12 9 -6 -2 4
-8 2 -17 -6 -22 -22 -13 7 -12 34 2 64 33 83 81 51 128 -34 47 -134 66 -200
37z"/>
<path d="M1080 1645 c0 -43 4 -56 19 -65 31 -16 32 -13 29 46 -3 48 -6 58 -25
65 -22 8 -23 6 -23 -46z"/>
<path d="M1893 1689 c-20 -7 -23 -15 -23 -64 0 -57 5 -63 34 -42 13 10 16 24
14 64 -3 48 -4 50 -25 42z"/>
<path d="M1160 1630 c0 -33 4 -60 10 -60 6 0 10 27 10 60 0 33 -4 60 -10 60
-6 0 -10 -27 -10 -60z"/>
<path d="M1820 1630 c0 -33 4 -60 10 -60 6 0 10 27 10 60 0 33 -4 60 -10 60
-6 0 -10 -27 -10 -60z"/>
<path d="M1467 1423 c-12 -22 -17 -85 -7 -103 15 -29 67 -27 81 3 13 28 -1 99
-21 105 -13 4 -13 3 -2 -11 7 -9 12 -32 10 -54 -3 -33 -6 -38 -28 -38 -24 0
-25 3 -25 53 1 52 0 58 -8 45z"/>
<path d="M1415 1356 c-22 -33 -10 -73 29 -97 38 -23 67 -24 107 -4 49 26 61
85 22 117 -15 12 -15 11 -5 -9 27 -51 -4 -93 -68 -93 -63 0 -95 43 -70 91 15
27 4 24 -15 -5z"/>
<path d="M1656 1211 c-14 -16 -15 -20 -2 -30 13 -11 16 -8 22 14 8 34 1 40
-20 16z"/>
<path d="M1573 1133 c-35 -37 -30 -40 25 -17 33 14 35 17 17 24 -19 8 -19 9 2
9 29 1 38 16 10 16 -12 0 -36 -15 -54 -32z"/>
<path d="M1101 1091 c-25 -25 -27 -65 -6 -141 25 -90 35 -182 25 -224 -6 -28
-6 -36 3 -27 19 19 25 13 41 -41 17 -58 32 -86 40 -77 3 3 1 21 -4 40 -14 50
-12 135 6 230 20 104 15 189 -13 227 -25 34 -65 40 -92 13z m69 -57 c11 -29
12 -107 0 -144 l-7 -25 -10 25 c-18 44 -36 138 -30 154 10 25 36 19 47 -10z"/>
<path d="M1810 1085 c-32 -34 -37 -115 -15 -240 17 -93 17 -203 0 -247 -4 -10
-3 -18 3 -18 12 0 42 72 42 100 0 24 17 35 34 20 12 -9 13 -4 5 30 -10 43 0
122 26 220 20 76 19 116 -5 140 -27 27 -62 25 -90 -5z m65 -48 c6 -21 -18
-138 -33 -161 -18 -30 -30 113 -12 158 12 32 38 34 45 3z"/>
<path d="M1458 874 c-63 -34 -76 -125 -39 -268 24 -91 25 -126 7 -178 -18 -50
5 -53 28 -4 20 43 21 133 1 206 -22 82 -20 165 5 190 21 21 47 25 66 12 36
-24 44 -109 19 -202 -8 -30 -15 -85 -15 -122 0 -62 3 -70 31 -100 21 -23 29
-27 23 -13 -27 73 -28 115 -6 207 38 157 26 240 -38 273 -36 18 -47 18 -82 -1z"/>
</g>
</svg>
